<svg xmlns="http://www.w3.org/2000/svg" width="14" height="15" viewBox="0 0 14 15">
    <path fill="#FFF" fill-rule="evenodd" d="M10.344 9.8l-2.4-2.4 2.4-2.4-.944-.944-2.4 2.4-2.4-2.4L3.656 5l2.4 2.4-2.4 2.4.944.944 2.4-2.4 2.4 2.4.944-.944zM7 .744c1.216 0 2.341.304 3.376.912a6.308 6.308 0 0 1 2.368 2.368 6.546 6.546 0 0 1 .912 3.376 6.546 6.546 0 0 1-.912 3.376 6.308 6.308 0 0 1-2.368 2.368A6.546 6.546 0 0 1 7 14.056a6.546 6.546 0 0 1-3.376-.912 6.428 6.428 0 0 1-2.368-2.384A6.517 6.517 0 0 1 .344 7.4c0-1.205.304-2.325.912-3.36A6.55 6.55 0 0 1 3.64 1.656 6.517 6.517 0 0 1 7 .744z"/>
</svg>
